{
  "asset": {
    "version": "2.0",
    "generator": "THREE.GLTFExporter"
  },
  "scenes": [
    {
      "nodes": [
        2
      ],
      "name": "AuxScene"
    }
  ],
  "scene": 0,
  "nodes": [
    {
      "matrix": [
        0.0011646453058347106,
        0,
        0,
        0,
        0,
        0.0011646453058347106,
        0,
        0,
        0,
        0,
        0.0011646453058347106,
        0,
        0.028221072629094124,
        -0.25600001215934753,
        0.21352818608283997,
        1
      ],
      "name": "node_id30",
      "mesh": 0
    },
    {
      "name": "root",
      "children": [
        0
      ]
    },
    {
      "children": [
        1
      ]
    }
  ],
  "bufferViews": [
    {
      "buffer": 0,
      "byteOffset": 0,
      "byteLength": 972432,
      "target": 34962,
      "byteStride": 12
    },
    {
      "buffer": 0,
      "byteOffset": 972432,
      "byteLength": 972432,
      "target": 34962,
      "byteStride": 12
    },
    {
      "buffer": 0,
      "byteOffset": 1944864,
      "byteLength": 648288,
      "target": 34962,
      "byteStride": 8
    },
    {
      "buffer": 0,
      "byteOffset": 2593152,
      "byteLength": 324144,
      "target": 34963
    }
  ],
  "buffers": [
    {
      "byteLength": 2917296,
      "uri": "data:application/octet-stream;base64,"
    }
  ],
  "accessors": [
    {
      "bufferView": 0,
      "componentType": 5126,
      "count": 81036,
      "max": [
        105.80036926269531,
        570.2152709960938,
        125.71356964111328
      ],
      "min": [
        -105.80037689208984,
        -0.00000286102294921875,
        -105.80033111572266
      ],
      "type": "VEC3"
    },
    {
      "bufferView": 1,
      "componentType": 5126,
      "count": 81036,
      "max": [
        0.9999980330467224,
        1,
        0.9999980330467224
      ],
      "min": [
        -0.9999980330467224,
        -1,
        -0.9999985098838806
      ],
      "type": "VEC3"
    },
    {
      "bufferView": 2,
      "componentType": 5126,
      "count": 81036,
      "max": [
        0.9916447997093201,
        0.9924519658088684
      ],
      "min": [
        0.006056427955627441,
        0.009460985660552979
      ],
      "type": "VEC2"
    },
    {
      "bufferView": 3,
      "componentType": 5125,
      "count": 81036,
      "max": [
        81035
      ],
      "min": [
        0
      ],
      "type": "SCALAR"
    }
  ],
  "materials": [
    {
      "pbrMetallicRoughness": {
        "metallicFactor": 0.5,
        "roughnessFactor": 0.5,
        "baseColorTexture": {
          "index": 0
        }
      },
      "name": "Material_49"
    }
  ],
  "textures": [
    {
      "sampler": 0,
      "source": 0
    }
  ],
  "samplers": [
    {
      "magFilter": 9729,
      "minFilter": 9987
    }
  ],
  "images": [
    {
      "mimeType": "image/png",
      "uri": "data:image/png;base64,"
    }
  ],
  "meshes": [
    {
      "primitives": [
        {
          "mode": 4,
          "attributes": {
            "POSITION": 0,
            "NORMAL": 1,
            "TEXCOORD_0": 2
          },
          "indices": 3,
          "material": 0
        }
      ]
    }
  ]
}